<?xml version="1.0" encoding="utf-8"?>
<!-- Generator: Adobe Illustrator 15.1.0, SVG Export Plug-In . SVG Version: 6.00 Build 0)  -->
<!DOCTYPE svg PUBLIC "-//W3C//DTD SVG 1.1//EN" "http://www.w3.org/Graphics/SVG/1.1/DTD/svg11.dtd">
<svg version="1.1" id="Layer_1" xmlns="http://www.w3.org/2000/svg" xmlns:xlink="http://www.w3.org/1999/xlink" x="0px" y="0px"
	 width="28.7px" height="12px" viewBox="0 0 28.7 12" enable-background="new 0 0 28.7 12" xml:space="preserve">
<path fill="#FFFFFF" d="M27.989,5.264H27.7C27.347,2.299,24.827,0,21.769,0c-2.844,0-5.218,1.984-5.825,4.643l-1.37-0.716
	c-0.138-0.072-0.304-0.072-0.441,0l-1.371,0.716C12.154,1.985,9.78,0,6.937,0c-3.06,0-5.578,2.299-5.933,5.263H0.718
	C0.321,5.263,0,5.584,0,5.981c0,0.396,0.321,0.717,0.718,0.717h0.286c0.355,2.964,2.873,5.261,5.933,5.261
	c3.303,0,5.981-2.678,5.981-5.979c0-0.111-0.012-0.22-0.017-0.33l1.452-0.758l1.453,0.758c-0.007,0.11-0.019,0.219-0.019,0.33
	c0,3.302,2.678,5.979,5.981,5.979c3.059,0,5.578-2.297,5.932-5.261h0.289c0.396,0,0.716-0.32,0.716-0.717
	C28.705,5.585,28.385,5.264,27.989,5.264z M6.937,11.003c-2.77,0-5.023-2.253-5.023-5.023c0-2.769,2.253-5.022,5.023-5.022
	s5.024,2.253,5.024,5.022C11.961,8.75,9.707,11.003,6.937,11.003z M21.769,11.003c-2.771,0-5.022-2.253-5.022-5.023
	c0-2.769,2.252-5.022,5.022-5.022c2.77,0,5.022,2.254,5.022,5.022C26.791,8.75,24.538,11.003,21.769,11.003z"/>
</svg>
